ISO-10303-21;
HEADER;
FILE_DESCRIPTION (( 'STEP AP214' ),
    '1' );
FILE_NAME ('Same_Sky_CUSA-TR65-065-2200-TH68.step',
    '2025-07-30T21:40:53',
    ( '' ),
    ( '' ),
    'SwSTEP 2.0',
    'SolidWorks 2025',
    '' );
FILE_SCHEMA (( 'AUTOMOTIVE_DESIGN' ));
ENDSEC;

DATA;
#1 = DIRECTION ( 'NONE',  ( 0.000000000000000000, -1.000000000000000000, 0.000000000000000000 ) ) ;
#2 = EDGE_CURVE ( 'NONE', #323, #367, #291, .T. ) ;
#3 = ORIENTED_EDGE ( 'NONE', *, *, #328, .T. ) ;
#4 = AXIS2_PLACEMENT_3D ( 'NONE', #459, #133, #141 ) ;
#5 = CARTESIAN_POINT ( 'NONE',  ( 6.000000000000000000, 6.000000000000000000, -3.605551275463910077 ) ) ;
#6 = PLANE ( 'NONE',  #204 ) ;
#7 = DIRECTION ( 'NONE',  ( 0.000000000000000000, 0.000000000000000000, -1.000000000000000000 ) ) ;
#8 = DIRECTION ( 'NONE',  ( 1.000000000000000000, 0.000000000000000000, 0.000000000000000000 ) ) ;
#9 = CARTESIAN_POINT ( 'NONE',  ( 6.000000000000000000, 9.090000000000001634, 3.821884351991799988 ) ) ;
#10 = AXIS2_PLACEMENT_3D ( 'NONE', #268, #414, #145 ) ;
#11 = DIRECTION ( 'NONE',  ( 0.000000000000000000, -1.000000000000000000, 0.000000000000000000 ) ) ;
#12 = DIRECTION ( 'NONE',  ( 0.000000000000000000, -1.000000000000000000, 0.000000000000000000 ) ) ;
#13 = DIRECTION ( 'NONE',  ( 0.000000000000000000, 0.000000000000000000, -1.000000000000000000 ) ) ;
#14 = ADVANCED_FACE ( 'NONE', ( #340 ), #6, .T. ) ;
#15 = PLANE ( 'NONE',  #77 ) ;
#16 =( NAMED_UNIT ( * ) PLANE_ANGLE_UNIT ( ) SI_UNIT ( $, .RADIAN. ) );
#17 = ORIENTED_EDGE ( 'NONE', *, *, #166, .T. ) ;
#18 = VECTOR ( 'NONE', #429, 1000.000000000000000 ) ;
#19 = CARTESIAN_POINT ( 'NONE',  ( -2.119615247209159906E-14, 9.000000000000000000, 2.500000000000000000 ) ) ;
#20 = VERTEX_POINT ( 'NONE', #50 ) ;
#21 = EDGE_CURVE ( 'NONE', #245, #41, #448, .T. ) ;
#22 = PLANE ( 'NONE',  #178 ) ;
#23 = EDGE_CURVE ( 'NONE', #367, #37, #103, .T. ) ;
#24 = CARTESIAN_POINT ( 'NONE',  ( -6.000000000000000000, 9.090000000000001634, -3.821884351991799988 ) ) ;
#25 = DIRECTION ( 'NONE',  ( 0.000000000000000000, 1.000000000000000000, 0.000000000000000000 ) ) ;
#26 = ORIENTED_EDGE ( 'NONE', *, *, #458, .F. ) ;
#27 = CARTESIAN_POINT ( 'NONE',  ( -8.283304597789248827E-14, 0.000000000000000000, 8.673617379884030542E-16 ) ) ;
#28 = VERTEX_POINT ( 'NONE', #47 ) ;
#29 = VECTOR ( 'NONE', #68, 1000.000000000000000 ) ;
#30 = MECHANICAL_DESIGN_GEOMETRIC_PRESENTATION_REPRESENTATION (  '', ( #280 ), #320 ) ;
#31 = PLANE ( 'NONE',  #378 ) ;
#32 = EDGE_CURVE ( 'NONE', #382, #245, #304, .T. ) ;
#33 = ORIENTED_EDGE ( 'NONE', *, *, #58, .T. ) ;
#34 = DIRECTION ( 'NONE',  ( 0.000000000000000000, 0.000000000000000000, 1.000000000000000000 ) ) ;
#35 = ORIENTED_EDGE ( 'NONE', *, *, #192, .T. ) ;
#36 = CARTESIAN_POINT ( 'NONE',  ( -6.000000000000159872, 0.000000000000000000, 3.605551275463904748 ) ) ;
#37 = VERTEX_POINT ( 'NONE', #341 ) ;
#38 = AXIS2_PLACEMENT_3D ( 'NONE', #104, #456, #276 ) ;
#39 = AXIS2_PLACEMENT_3D ( 'NONE', #132, #375, #163 ) ;
#40 = LINE ( 'NONE', #36, #226 ) ;
#41 = VERTEX_POINT ( 'NONE', #410 ) ;
#42 = ADVANCED_FACE ( 'NONE', ( #199 ), #85, .T. ) ;
#43 = DIRECTION ( 'NONE',  ( 0.000000000000000000, 0.000000000000000000, 1.000000000000000000 ) ) ;
#44 = ORIENTED_EDGE ( 'NONE', *, *, #332, .F. ) ;
#45 = CARTESIAN_POINT ( 'NONE',  ( -4.072514856396170278E-17, 3.252606517456515274E-16, 6.499999999999638511 ) ) ;
#46 = VERTEX_POINT ( 'NONE', #266 ) ;
#47 = CARTESIAN_POINT ( 'NONE',  ( -6.000000000000079936, 6.000000000000000000, 3.605551275464039751 ) ) ;
#48 =( GEOMETRIC_REPRESENTATION_CONTEXT ( 3 ) GLOBAL_UNCERTAINTY_ASSIGNED_CONTEXT ( ( #221 ) ) GLOBAL_UNIT_ASSIGNED_CONTEXT ( ( #446, #264, #86 ) ) REPRESENTATION_CONTEXT ( 'NONE', 'WORKASPACE' ) );
#49 = ADVANCED_FACE ( 'NONE', ( #198 ), #15, .T. ) ;
#50 = CARTESIAN_POINT ( 'NONE',  ( -2.115941306811717978E-14, 18.00000000000000000, 2.200000000000015721 ) ) ;
#51 = DIRECTION ( 'NONE',  ( 0.000000000000000000, 0.000000000000000000, 1.000000000000000000 ) ) ;
#52 = DIRECTION ( 'NONE',  ( 0.000000000000000000, 1.000000000000000000, 0.000000000000000000 ) ) ;
#53 = DIRECTION ( 'NONE',  ( 0.000000000000000000, 0.000000000000000000, 1.000000000000000000 ) ) ;
#54 = CIRCLE ( 'NONE', #10, 0.2999999999999842792 ) ;
#55 = CARTESIAN_POINT ( 'NONE',  ( -8.673617379884030542E-16, 0.5000000000000000000, -8.673617379884039416E-16 ) ) ;
#56 = CIRCLE ( 'NONE', #144, 0.2999999999999842792 ) ;
#57 = CARTESIAN_POINT ( 'NONE',  ( -2.119615247209159906E-14, 18.00000000000000000, 2.500000000000000000 ) ) ;
#58 = EDGE_CURVE ( 'NONE', #140, #420, #56, .T. ) ;
#59 = VECTOR ( 'NONE', #146, 1000.000000000000000 ) ;
#60 = AXIS2_PLACEMENT_3D ( 'NONE', #400, #294, #434 ) ;
#61 = DIRECTION ( 'NONE',  ( 0.000000000000000000, 0.000000000000000000, 1.000000000000000000 ) ) ;
#62 = PRESENTATION_STYLE_ASSIGNMENT (( #349 ) ) ;
#63 = EDGE_LOOP ( 'NONE', ( #325, #33 ) ) ;
#64 = PRODUCT_CONTEXT ( 'NONE', #156, 'mechanical' ) ;
#65 = FACE_OUTER_BOUND ( 'NONE', #257, .T. ) ;
#66 = DIRECTION ( 'NONE',  ( 0.000000000000000000, -1.000000000000000000, 0.000000000000000000 ) ) ;
#67 = VERTEX_POINT ( 'NONE', #161 ) ;
#68 = DIRECTION ( 'NONE',  ( 0.000000000000000000, 0.000000000000000000, -1.000000000000000000 ) ) ;
#69 = ORIENTED_EDGE ( 'NONE', *, *, #445, .F. ) ;
#70 = CARTESIAN_POINT ( 'NONE',  ( -2.129102016218409963E-14, 9.000000000000000000, -2.500000000000000000 ) ) ;
#71 = ORIENTED_EDGE ( 'NONE', *, *, #328, .F. ) ;
#72 = MANIFOLD_SOLID_BREP ( 'NONE', #152 ) ;
#73 = PRODUCT_DEFINITION_CONTEXT ( 'detailed design', #254, 'design' ) ;
#74 = CARTESIAN_POINT ( 'NONE',  ( -2.119615247209159906E-14, 9.000000000000000000, 2.799999999999984279 ) ) ;
#75 = ORIENTED_EDGE ( 'NONE', *, *, #293, .F. ) ;
#76 = AXIS2_PLACEMENT_3D ( 'NONE', #127, #300, #8 ) ;
#77 = AXIS2_PLACEMENT_3D ( 'NONE', #9, #345, #168 ) ;
#78 = CARTESIAN_POINT ( 'NONE',  ( -6.000000000000079936, 9.000000000000000000, -3.605551275464039751 ) ) ;
#79 = EDGE_LOOP ( 'NONE', ( #26, #242, #295, #433 ) ) ;
#80 = CARTESIAN_POINT ( 'NONE',  ( -8.673617379884030542E-16, 0.5000000000000000000, -8.673617379884039416E-16 ) ) ;
#81 = ORIENTED_EDGE ( 'NONE', *, *, #113, .F. ) ;
#82 = DIRECTION ( 'NONE',  ( 0.000000000000000000, -1.000000000000000000, 0.000000000000000000 ) ) ;
#83 = CIRCLE ( 'NONE', #93, 7.000000000000000000 ) ;
#84 = CARTESIAN_POINT ( 'NONE',  ( -2.129102016218409963E-14, 9.000000000000000000, -2.200000000000015721 ) ) ;
#85 = CYLINDRICAL_SURFACE ( 'NONE', #442, 0.2999999999999842792 ) ;
#86 =( NAMED_UNIT ( * ) SI_UNIT ( $, .STERADIAN. ) SOLID_ANGLE_UNIT ( ) );
#87 = CARTESIAN_POINT ( 'NONE',  ( -15.21243556529799967, 0.000000000000000000, -13.33679121828000014 ) ) ;
#88 = ADVANCED_FACE ( 'NONE', ( #348 ), #267, .T. ) ;
#89 = DIRECTION ( 'NONE',  ( 0.000000000000000000, -1.000000000000000000, 0.000000000000000000 ) ) ;
#90 = EDGE_CURVE ( 'NONE', #37, #367, #121, .T. ) ;
#91 = DIRECTION ( 'NONE',  ( 0.000000000000000000, 0.000000000000000000, -1.000000000000000000 ) ) ;
#92 = CARTESIAN_POINT ( 'NONE',  ( 6.000000000000000000, 0.000000000000000000, 3.605551275463979799 ) ) ;
#93 = AXIS2_PLACEMENT_3D ( 'NONE', #130, #162, #339 ) ;
#94 = DIRECTION ( 'NONE',  ( 0.000000000000000000, -1.000000000000000000, 0.000000000000000000 ) ) ;
#95 = AXIS2_PLACEMENT_3D ( 'NONE', #19, #200, #61 ) ;
#96 = CARTESIAN_POINT ( 'NONE',  ( 8.527221794213099670, 6.000000000000000000, -3.966106403010400072 ) ) ;
#97 = DIRECTION ( 'NONE',  ( -0.000000000000000000, 1.000000000000000000, 0.000000000000000000 ) ) ;
#98 = ORIENTED_EDGE ( 'NONE', *, *, #359, .F. ) ;
#99 = DIRECTION ( 'NONE',  ( -1.000000000000000000, 0.000000000000000000, 0.000000000000000000 ) ) ;
#100 = CIRCLE ( 'NONE', #408, 0.2999999999999842792 ) ;
#101 = LINE ( 'NONE', #271, #461 ) ;
#102 = EDGE_LOOP ( 'NONE', ( #238, #272, #217, #260 ) ) ;
#103 = CIRCLE ( 'NONE', #158, 6.499999999999639400 ) ;
#104 = CARTESIAN_POINT ( 'NONE',  ( 0.000000000000000000, 0.000000000000000000, 0.000000000000000000 ) ) ;
#105 = CARTESIAN_POINT ( 'NONE',  ( -6.000000000000159872, 0.000000000000000000, -3.605551275463904748 ) ) ;
#106 = ORIENTED_EDGE ( 'NONE', *, *, #390, .F. ) ;
#107 = EDGE_CURVE ( 'NONE', #140, #20, #137, .T. ) ;
#108 = CARTESIAN_POINT ( 'NONE',  ( -2.119615247209159906E-14, 9.000000000000000000, 2.500000000000000000 ) ) ;
#109 = VERTEX_POINT ( 'NONE', #353 ) ;
#110 = LINE ( 'NONE', #462, #29 ) ;
#111 = ORIENTED_EDGE ( 'NONE', *, *, #390, .T. ) ;
#112 = CIRCLE ( 'NONE', #60, 7.000000000000000000 ) ;
#113 = EDGE_CURVE ( 'NONE', #299, #327, #101, .T. ) ;
#114 = CARTESIAN_POINT ( 'NONE',  ( -2.129102016218409963E-14, 15.00000000000000000, -2.500000000000000000 ) ) ;
#115 = ORIENTED_EDGE ( 'NONE', *, *, #332, .T. ) ;
#116 = DIRECTION ( 'NONE',  ( -0.000000000000000000, 1.000000000000000000, 0.000000000000000000 ) ) ;
#117 = ORIENTED_EDGE ( 'NONE', *, *, #131, .T. ) ;
#118 = CARTESIAN_POINT ( 'NONE',  ( -2.125428075820968035E-14, 15.00000000000000000, -2.799999999999984279 ) ) ;
#119 = EDGE_LOOP ( 'NONE', ( #235, #223 ) ) ;
#120 = TOROIDAL_SURFACE ( 'NONE', #288, 6.500000000000000000, 0.5000000000000000000 ) ;
#121 = CIRCLE ( 'NONE', #424, 6.499999999999639400 ) ;
#122 = ORIENTED_EDGE ( 'NONE', *, *, #21, .T. ) ;
#123 = EDGE_CURVE ( 'NONE', #382, #395, #174, .T. ) ;
#124 = EDGE_LOOP ( 'NONE', ( #35, #3 ) ) ;
#125 = PRODUCT_DEFINITION_SHAPE ( 'NONE', 'NONE',  #314 ) ;
#126 = DIRECTION ( 'NONE',  ( 1.000000000000000000, 0.000000000000000000, 0.000000000000000000 ) ) ;
#127 = CARTESIAN_POINT ( 'NONE',  ( 0.6519615242270699884, 18.00000000000000000, 1.928423233502299938 ) ) ;
#128 = AXIS2_PLACEMENT_3D ( 'NONE', #55, #136, #13 ) ;
#129 = ADVANCED_FACE ( 'NONE', ( #381 ), #389, .T. ) ;
#130 = CARTESIAN_POINT ( 'NONE',  ( -8.673617379884030542E-16, 0.5000000000000000000, -8.673617379884039416E-16 ) ) ;
#131 = EDGE_CURVE ( 'NONE', #46, #20, #182, .T. ) ;
#132 = CARTESIAN_POINT ( 'NONE',  ( -8.283304597789248827E-14, 9.000000000000000000, 8.673617379884030542E-16 ) ) ;
#133 = DIRECTION ( 'NONE',  ( 0.000000000000000000, -1.000000000000000000, 0.000000000000000000 ) ) ;
#134 = CARTESIAN_POINT ( 'NONE',  ( -8.197579321848934223E-14, 9.000000000000000000, -6.999999999999999112 ) ) ;
#135 = AXIS2_PLACEMENT_3D ( 'NONE', #403, #82, #51 ) ;
#136 = DIRECTION ( 'NONE',  ( 0.000000000000000000, -1.000000000000000000, 0.000000000000000000 ) ) ;
#137 = LINE ( 'NONE', #233, #167 ) ;
#138 = ORIENTED_EDGE ( 'NONE', *, *, #388, .T. ) ;
#139 = DIRECTION ( 'NONE',  ( 0.000000000000000000, 1.000000000000000000, 0.000000000000000000 ) ) ;
#140 = VERTEX_POINT ( 'NONE', #142 ) ;
#141 = DIRECTION ( 'NONE',  ( 0.000000000000000000, 0.000000000000000000, 1.000000000000000000 ) ) ;
#142 = CARTESIAN_POINT ( 'NONE',  ( -2.115941306811717978E-14, 9.000000000000000000, 2.200000000000015721 ) ) ;
#143 = ORIENTED_EDGE ( 'NONE', *, *, #438, .T. ) ;
#144 = AXIS2_PLACEMENT_3D ( 'NONE', #308, #89, #53 ) ;
#145 = DIRECTION ( 'NONE',  ( 0.000000000000000000, 0.000000000000000000, 1.000000000000000000 ) ) ;
#146 = DIRECTION ( 'NONE',  ( 0.000000000000000000, 1.000000000000000000, 0.000000000000000000 ) ) ;
#147 = EDGE_LOOP ( 'NONE', ( #44, #106, #430, #224, #365, #17, #177, #138 ) ) ;
#148 = ADVANCED_FACE ( 'NONE', ( #65 ), #22, .T. ) ;
#149 = AXIS2_PLACEMENT_3D ( 'NONE', #24, #99, #232 ) ;
#150 = ORIENTED_EDGE ( 'NONE', *, *, #166, .F. ) ;
#151 = CIRCLE ( 'NONE', #338, 7.000000000000000000 ) ;
#152 = CLOSED_SHELL ( 'NONE', ( #470, #175, #42, #88, #396, #14, #148, #49, #253, #452, #373, #415, #129, #322, #471, #355 ) ) ;
#153 = CARTESIAN_POINT ( 'NONE',  ( -8.283304597789248827E-14, 0.000000000000000000, 7.000000000000000888 ) ) ;
#154 = ORIENTED_EDGE ( 'NONE', *, *, #21, .F. ) ;
#155 = ORIENTED_EDGE ( 'NONE', *, *, #225, .T. ) ;
#156 = APPLICATION_CONTEXT ( 'automotive_design' ) ;
#157 = ORIENTED_EDGE ( 'NONE', *, *, #312, .T. ) ;
#158 = AXIS2_PLACEMENT_3D ( 'NONE', #261, #12, #7 ) ;
#159 = PLANE ( 'NONE',  #76 ) ;
#160 = CARTESIAN_POINT ( 'NONE',  ( -7.134131854262350648E-17, 0.5000000000000000000, 6.499999999999999112 ) ) ;
#161 = CARTESIAN_POINT ( 'NONE',  ( -6.000000000000079936, 6.000000000000000000, -3.605551275464039751 ) ) ;
#162 = DIRECTION ( 'NONE',  ( 0.000000000000000000, -1.000000000000000000, 0.000000000000000000 ) ) ;
#163 = DIRECTION ( 'NONE',  ( 0.000000000000000000, 0.000000000000000000, 1.000000000000000000 ) ) ;
#164 = EDGE_CURVE ( 'NONE', #67, #274, #425, .T. ) ;
#165 = CIRCLE ( 'NONE', #255, 7.000000000000000000 ) ;
#166 = EDGE_CURVE ( 'NONE', #28, #67, #346, .T. ) ;
#167 = VECTOR ( 'NONE', #351, 1000.000000000000000 ) ;
#168 = DIRECTION ( 'NONE',  ( 0.000000000000000000, 1.000000000000000000, 0.000000000000000000 ) ) ;
#169 = CARTESIAN_POINT ( 'NONE',  ( -8.673617379884030542E-16, 3.252606517456515274E-16, -8.673617379884039416E-16 ) ) ;
#170 = AXIS2_PLACEMENT_3D ( 'NONE', #383, #240, #209 ) ;
#171 = APPLICATION_PROTOCOL_DEFINITION ( 'draft international standard', 'automotive_design', 1998, #156 ) ;
#172 = EDGE_LOOP ( 'NONE', ( #397, #473, #143, #361 ) ) ;
#173 = CARTESIAN_POINT ( 'NONE',  ( -2.129102016218409963E-14, 9.000000000000000000, -2.200000000000015721 ) ) ;
#174 = LINE ( 'NONE', #315, #258 ) ;
#175 = ADVANCED_FACE ( 'NONE', ( #356 ), #205, .T. ) ;
#176 =( NAMED_UNIT ( * ) SI_UNIT ( $, .STERADIAN. ) SOLID_ANGLE_UNIT ( ) );
#177 = ORIENTED_EDGE ( 'NONE', *, *, #164, .T. ) ;
#178 = AXIS2_PLACEMENT_3D ( 'NONE', #96, #97, #281 ) ;
#179 = APPLICATION_PROTOCOL_DEFINITION ( 'draft international standard', 'automotive_design', 1998, #254 ) ;
#180 = DIRECTION ( 'NONE',  ( 0.000000000000000000, 1.000000000000000000, 0.000000000000000000 ) ) ;
#181 = ORIENTED_EDGE ( 'NONE', *, *, #359, .T. ) ;
#182 = CIRCLE ( 'NONE', #306, 0.2999999999999842792 ) ;
#183 = DIRECTION ( 'NONE',  ( 0.000000000000000000, 1.000000000000000000, 0.000000000000000000 ) ) ;
#184 = VERTEX_POINT ( 'NONE', #134 ) ;
#185 = CARTESIAN_POINT ( 'NONE',  ( -8.283304597789248827E-14, 6.000000000000000000, 8.673617379884030542E-16 ) ) ;
#186 = ORIENTED_EDGE ( 'NONE', *, *, #90, .T. ) ;
#187 = DIRECTION ( 'NONE',  ( 0.000000000000000000, 0.000000000000000000, 1.000000000000000000 ) ) ;
#188 = EDGE_LOOP ( 'NONE', ( #318, #98 ) ) ;
#189 = AXIS2_PLACEMENT_3D ( 'NONE', #80, #1, #197 ) ;
#190 = CYLINDRICAL_SURFACE ( 'NONE', #319, 0.2999999999999842792 ) ;
#191 = EDGE_LOOP ( 'NONE', ( #208, #111, #422, #290 ) ) ;
#192 = EDGE_CURVE ( 'NONE', #437, #299, #54, .T. ) ;
#193 = DIRECTION ( 'NONE',  ( 1.000000000000000000, 0.000000000000000000, 0.000000000000000000 ) ) ;
#194 = VERTEX_POINT ( 'NONE', #468 ) ;
#195 = DIRECTION ( 'NONE',  ( -1.224646799147352468E-16, 0.000000000000000000, -1.000000000000000000 ) ) ;
#196 = AXIS2_PLACEMENT_3D ( 'NONE', #386, #317, #201 ) ;
#197 = DIRECTION ( 'NONE',  ( 0.000000000000000000, 0.000000000000000000, -1.000000000000000000 ) ) ;
#198 = FACE_OUTER_BOUND ( 'NONE', #79, .T. ) ;
#199 = FACE_OUTER_BOUND ( 'NONE', #287, .T. ) ;
#200 = DIRECTION ( 'NONE',  ( 0.000000000000000000, 1.000000000000000000, 0.000000000000000000 ) ) ;
#201 = DIRECTION ( 'NONE',  ( 0.000000000000000000, 0.000000000000000000, 1.000000000000000000 ) ) ;
#202 = VECTOR ( 'NONE', #183, 1000.000000000000000 ) ;
#203 = CIRCLE ( 'NONE', #467, 0.2999999999999842792 ) ;
#204 = AXIS2_PLACEMENT_3D ( 'NONE', #301, #444, #126 ) ;
#205 = CYLINDRICAL_SURFACE ( 'NONE', #431, 7.000000000000000000 ) ;
#206 = EDGE_LOOP ( 'NONE', ( #186, #337 ) ) ;
#207 = CARTESIAN_POINT ( 'NONE',  ( -6.000000000000079936, 9.000000000000000000, 3.605551275464039751 ) ) ;
#208 = ORIENTED_EDGE ( 'NONE', *, *, #2, .F. ) ;
#209 = DIRECTION ( 'NONE',  ( 0.000000000000000000, 0.000000000000000000, 1.000000000000000000 ) ) ;
#210 = ORIENTED_EDGE ( 'NONE', *, *, #250, .F. ) ;
#211 = AXIS2_PLACEMENT_3D ( 'NONE', #344, #263, #305 ) ;
#212 = LINE ( 'NONE', #74, #59 ) ;
#213 = ORIENTED_EDGE ( 'NONE', *, *, #270, .T. ) ;
#214 = DIRECTION ( 'NONE',  ( 0.000000000000000000, 0.000000000000000000, 1.000000000000000000 ) ) ;
#215 = ORIENTED_EDGE ( 'NONE', *, *, #192, .F. ) ;
#216 = DIRECTION ( 'NONE',  ( 0.000000000000000000, -1.000000000000000000, 0.000000000000000000 ) ) ;
#217 = ORIENTED_EDGE ( 'NONE', *, *, #90, .F. ) ;
#218 = FACE_OUTER_BOUND ( 'NONE', #455, .T. ) ;
#219 = ORIENTED_EDGE ( 'NONE', *, *, #234, .F. ) ;
#220 = EDGE_CURVE ( 'NONE', #464, #28, #40, .T. ) ;
#221 = UNCERTAINTY_MEASURE_WITH_UNIT (LENGTH_MEASURE( 1.000000000000000082E-05 ), #446, 'distance_accuracy_value', 'NONE');
#222 = DIRECTION ( 'NONE',  ( 0.000000000000000000, -1.000000000000000000, 0.000000000000000000 ) ) ;
#223 = ORIENTED_EDGE ( 'NONE', *, *, #438, .F. ) ;
#224 = ORIENTED_EDGE ( 'NONE', *, *, #293, .T. ) ;
#225 = EDGE_CURVE ( 'NONE', #395, #382, #165, .T. ) ;
#226 = VECTOR ( 'NONE', #251, 1000.000000000000000 ) ;
#227 = PLANE ( 'NONE',  #350 ) ;
#228 = DIRECTION ( 'NONE',  ( 0.000000000000000000, -1.000000000000000000, 0.000000000000000000 ) ) ;
#229 = CARTESIAN_POINT ( 'NONE',  ( -5.639444872453600155, 6.000000000000000000, -3.966106403010400072 ) ) ;
#230 = CIRCLE ( 'NONE', #278, 0.2999999999999842792 ) ;
#231 = COLOUR_RGB ( '',0.7921568627450980005, 0.8196078431372548767, 0.9333333333333333481 ) ;
#232 = DIRECTION ( 'NONE',  ( 0.000000000000000000, 0.000000000000000000, 1.000000000000000000 ) ) ;
#233 = CARTESIAN_POINT ( 'NONE',  ( -2.115941306811717978E-14, 9.000000000000000000, 2.200000000000015721 ) ) ;
#234 = EDGE_CURVE ( 'NONE', #28, #67, #394, .T. ) ;
#235 = ORIENTED_EDGE ( 'NONE', *, *, #131, .F. ) ;
#236 = LINE ( 'NONE', #416, #269 ) ;
#237 = DIRECTION ( 'NONE',  ( 0.000000000000000000, 0.000000000000000000, -1.000000000000000000 ) ) ;
#238 = ORIENTED_EDGE ( 'NONE', *, *, #368, .T. ) ;
#239 = DIRECTION ( 'NONE',  ( 0.000000000000000000, 0.000000000000000000, 1.000000000000000000 ) ) ;
#240 = DIRECTION ( 'NONE',  ( 0.000000000000000000, -1.000000000000000000, 0.000000000000000000 ) ) ;
#241 = LINE ( 'NONE', #153, #439 ) ;
#242 = ORIENTED_EDGE ( 'NONE', *, *, #372, .F. ) ;
#243 = DIRECTION ( 'NONE',  ( 0.000000000000000000, 0.000000000000000000, 1.000000000000000000 ) ) ;
#244 = FACE_BOUND ( 'NONE', #124, .T. ) ;
#245 = VERTEX_POINT ( 'NONE', #256 ) ;
#246 = CARTESIAN_POINT ( 'NONE',  ( -8.673617379884030542E-16, 0.5000000000000000000, -8.673617379884039416E-16 ) ) ;
#247 = ORIENTED_EDGE ( 'NONE', *, *, #445, .T. ) ;
#248 = ADVANCED_BREP_SHAPE_REPRESENTATION ( 'Same_Sky_CUSA-TR65-065-2200-TH68', ( #72, #38 ), #48 ) ;
#249 = CYLINDRICAL_SURFACE ( 'NONE', #453, 7.000000000000000000 ) ;
#250 = EDGE_CURVE ( 'NONE', #420, #140, #100, .T. ) ;
#251 = DIRECTION ( 'NONE',  ( 0.000000000000000000, -1.000000000000000000, 0.000000000000000000 ) ) ;
#252 = EDGE_LOOP ( 'NONE', ( #418, #115, #247, #435, #155, #428, #122, #401 ) ) ;
#253 = ADVANCED_FACE ( 'NONE', ( #330, #244, #463 ), #31, .T. ) ;
#254 = APPLICATION_CONTEXT ( 'automotive_design' ) ;
#255 = AXIS2_PLACEMENT_3D ( 'NONE', #185, #283, #187 ) ;
#256 = CARTESIAN_POINT ( 'NONE',  ( 6.000000000000000000, 9.000000000000000000, 3.605551275463940275 ) ) ;
#257 = EDGE_LOOP ( 'NONE', ( #357, #331 ) ) ;
#258 = VECTOR ( 'NONE', #237, 1000.000000000000000 ) ;
#259 = PLANE ( 'NONE',  #423 ) ;
#260 = ORIENTED_EDGE ( 'NONE', *, *, #409, .F. ) ;
#261 = CARTESIAN_POINT ( 'NONE',  ( -8.673617379884030542E-16, 3.252606517456515274E-16, -8.673617379884039416E-16 ) ) ;
#262 = CIRCLE ( 'NONE', #211, 0.5000000000000004441 ) ;
#263 = DIRECTION ( 'NONE',  ( -1.000000000000000000, -0.000000000000000000, -0.000000000000000000 ) ) ;
#264 =( NAMED_UNIT ( * ) PLANE_ANGLE_UNIT ( ) SI_UNIT ( $, .RADIAN. ) );
#265 = FACE_OUTER_BOUND ( 'NONE', #119, .T. ) ;
#266 = CARTESIAN_POINT ( 'NONE',  ( -2.119615247209159906E-14, 18.00000000000000000, 2.799999999999984279 ) ) ;
#267 = CYLINDRICAL_SURFACE ( 'NONE', #95, 0.2999999999999842792 ) ;
#268 = CARTESIAN_POINT ( 'NONE',  ( -2.129102016218409963E-14, 9.000000000000000000, -2.500000000000000000 ) ) ;
#269 = VECTOR ( 'NONE', #279, 1000.000000000000000 ) ;
#270 = EDGE_CURVE ( 'NONE', #109, #327, #203, .T. ) ;
#271 = CARTESIAN_POINT ( 'NONE',  ( -2.125428075820968035E-14, 9.000000000000000000, -2.799999999999984279 ) ) ;
#272 = ORIENTED_EDGE ( 'NONE', *, *, #2, .T. ) ;
#273 = SURFACE_STYLE_FILL_AREA ( #302 ) ;
#274 = VERTEX_POINT ( 'NONE', #78 ) ;
#275 = CARTESIAN_POINT ( 'NONE',  ( -2.119615247209159906E-14, 9.000000000000000000, 2.799999999999984279 ) ) ;
#276 = DIRECTION ( 'NONE',  ( 1.000000000000000000, 0.000000000000000000, 0.000000000000000000 ) ) ;
#277 = DIRECTION ( 'NONE',  ( 0.000000000000000000, -1.000000000000000000, 0.000000000000000000 ) ) ;
#278 = AXIS2_PLACEMENT_3D ( 'NONE', #114, #11, #307 ) ;
#279 = DIRECTION ( 'NONE',  ( 0.000000000000000000, -1.000000000000000000, 0.000000000000000000 ) ) ;
#280 = STYLED_ITEM ( 'NONE', ( #62 ), #72 ) ;
#281 = DIRECTION ( 'NONE',  ( 1.000000000000000000, 0.000000000000000000, 0.000000000000000000 ) ) ;
#282 = ORIENTED_EDGE ( 'NONE', *, *, #113, .T. ) ;
#283 = DIRECTION ( 'NONE',  ( 0.000000000000000000, -1.000000000000000000, 0.000000000000000000 ) ) ;
#284 = ORIENTED_EDGE ( 'NONE', *, *, #387, .F. ) ;
#285 = EDGE_CURVE ( 'NONE', #464, #274, #110, .T. ) ;
#286 = CARTESIAN_POINT ( 'NONE',  ( -2.129102016218409963E-14, 15.00000000000000000, -2.500000000000000000 ) ) ;
#287 = EDGE_LOOP ( 'NONE', ( #71, #282, #181, #284 ) ) ;
#288 = AXIS2_PLACEMENT_3D ( 'NONE', #246, #216, #440 ) ;
#289 = CARTESIAN_POINT ( 'NONE',  ( -15.21243556529799967, 9.000000000000000000, -13.33679121828000014 ) ) ;
#290 = ORIENTED_EDGE ( 'NONE', *, *, #23, .F. ) ;
#291 = CIRCLE ( 'NONE', #385, 0.5000000000000004441 ) ;
#292 = EDGE_CURVE ( 'NONE', #323, #41, #241, .T. ) ;
#293 = EDGE_CURVE ( 'NONE', #41, #464, #112, .T. ) ;
#294 = DIRECTION ( 'NONE',  ( 0.000000000000000000, -1.000000000000000000, 0.000000000000000000 ) ) ;
#295 = ORIENTED_EDGE ( 'NONE', *, *, #32, .F. ) ;
#296 = CARTESIAN_POINT ( 'NONE',  ( -8.283304597789247565E-14, 0.5000000000000000000, 6.999999999999999112 ) ) ;
#297 = ORIENTED_EDGE ( 'NONE', *, *, #234, .T. ) ;
#298 = CIRCLE ( 'NONE', #407, 0.2999999999999842792 ) ;
#299 = VERTEX_POINT ( 'NONE', #436 ) ;
#300 = DIRECTION ( 'NONE',  ( -0.000000000000000000, 1.000000000000000000, 0.000000000000000000 ) ) ;
#301 = CARTESIAN_POINT ( 'NONE',  ( 0.6519615242270699884, 15.00000000000000000, -3.071576766497699840 ) ) ;
#302 = FILL_AREA_STYLE ('',( #405 ) ) ;
#303 = LINE ( 'NONE', #449, #392 ) ;
#304 = LINE ( 'NONE', #92, #347 ) ;
#305 = DIRECTION ( 'NONE',  ( 0.000000000000000000, 0.000000000000000000, 1.000000000000000000 ) ) ;
#306 = AXIS2_PLACEMENT_3D ( 'NONE', #57, #310, #417 ) ;
#307 = DIRECTION ( 'NONE',  ( 0.000000000000000000, 0.000000000000000000, 1.000000000000000000 ) ) ;
#308 = CARTESIAN_POINT ( 'NONE',  ( -2.119615247209159906E-14, 9.000000000000000000, 2.500000000000000000 ) ) ;
#309 = DIRECTION ( 'NONE',  ( 0.000000000000000000, 0.000000000000000000, 1.000000000000000000 ) ) ;
#310 = DIRECTION ( 'NONE',  ( 0.000000000000000000, -1.000000000000000000, 0.000000000000000000 ) ) ;
#311 = PRODUCT_DEFINITION_FORMATION_WITH_SPECIFIED_SOURCE ( 'ANY', '', #374, .NOT_KNOWN. ) ;
#312 = EDGE_CURVE ( 'NONE', #420, #46, #212, .T. ) ;
#313 = SURFACE_SIDE_STYLE ('',( #273 ) ) ;
#314 = PRODUCT_DEFINITION ( 'UNKNOWN', '', #311, #73 ) ;
#315 = CARTESIAN_POINT ( 'NONE',  ( 6.000000000000000000, 6.000000000000000000, 3.821884351991799988 ) ) ;
#316 = FACE_OUTER_BOUND ( 'NONE', #457, .T. ) ;
#317 = DIRECTION ( 'NONE',  ( 0.000000000000000000, 1.000000000000000000, 0.000000000000000000 ) ) ;
#318 = ORIENTED_EDGE ( 'NONE', *, *, #270, .F. ) ;
#319 = AXIS2_PLACEMENT_3D ( 'NONE', #334, #472, #214 ) ;
#320 =( GEOMETRIC_REPRESENTATION_CONTEXT ( 3 ) GLOBAL_UNCERTAINTY_ASSIGNED_CONTEXT ( ( #376 ) ) GLOBAL_UNIT_ASSIGNED_CONTEXT ( ( #419, #16, #176 ) ) REPRESENTATION_CONTEXT ( 'NONE', 'WORKASPACE' ) );
#321 = LINE ( 'NONE', #360, #202 ) ;
#322 = ADVANCED_FACE ( 'NONE', ( #218 ), #190, .T. ) ;
#323 = VERTEX_POINT ( 'NONE', #296 ) ;
#324 = CARTESIAN_POINT ( 'NONE',  ( 6.000000000000000000, 9.000000000000000000, -3.605551275463914962 ) ) ;
#325 = ORIENTED_EDGE ( 'NONE', *, *, #250, .T. ) ;
#326 = FACE_OUTER_BOUND ( 'NONE', #191, .T. ) ;
#327 = VERTEX_POINT ( 'NONE', #118 ) ;
#328 = EDGE_CURVE ( 'NONE', #299, #437, #298, .T. ) ;
#329 = VECTOR ( 'NONE', #139, 1000.000000000000000 ) ;
#330 = FACE_BOUND ( 'NONE', #63, .T. ) ;
#331 = ORIENTED_EDGE ( 'NONE', *, *, #123, .F. ) ;
#332 = EDGE_CURVE ( 'NONE', #194, #184, #321, .T. ) ;
#333 = SHAPE_DEFINITION_REPRESENTATION ( #125, #248 ) ;
#334 = CARTESIAN_POINT ( 'NONE',  ( -2.129102016218409963E-14, 9.000000000000000000, -2.500000000000000000 ) ) ;
#335 = VERTEX_POINT ( 'NONE', #324 ) ;
#336 = LINE ( 'NONE', #84, #370 ) ;
#337 = ORIENTED_EDGE ( 'NONE', *, *, #23, .T. ) ;
#338 = AXIS2_PLACEMENT_3D ( 'NONE', #412, #94, #239 ) ;
#339 = DIRECTION ( 'NONE',  ( 0.000000000000000000, 0.000000000000000000, -1.000000000000000000 ) ) ;
#340 = FACE_OUTER_BOUND ( 'NONE', #188, .T. ) ;
#341 = CARTESIAN_POINT ( 'NONE',  ( -8.673617379884030542E-16, 3.252606517456515274E-16, -6.499999999999640288 ) ) ;
#342 = CARTESIAN_POINT ( 'NONE',  ( -8.283304597789248827E-14, 0.000000000000000000, 8.673617379884030542E-16 ) ) ;
#343 = FACE_OUTER_BOUND ( 'NONE', #441, .T. ) ;
#344 = CARTESIAN_POINT ( 'NONE',  ( -8.673617379884030542E-16, 0.5000000000000000000, -6.500000000000000888 ) ) ;
#345 = DIRECTION ( 'NONE',  ( 1.000000000000000000, 0.000000000000000000, 0.000000000000000000 ) ) ;
#346 = CIRCLE ( 'NONE', #170, 7.000000000000000000 ) ;
#347 = VECTOR ( 'NONE', #52, 1000.000000000000000 ) ;
#348 = FACE_OUTER_BOUND ( 'NONE', #172, .T. ) ;
#349 = SURFACE_STYLE_USAGE ( .BOTH. , #313 ) ;
#350 = AXIS2_PLACEMENT_3D ( 'NONE', #87, #228, #450 ) ;
#351 = DIRECTION ( 'NONE',  ( 0.000000000000000000, 1.000000000000000000, 0.000000000000000000 ) ) ;
#352 = EDGE_LOOP ( 'NONE', ( #469, #363, #75, #154, #466, #69 ) ) ;
#353 = CARTESIAN_POINT ( 'NONE',  ( -2.129102016218409963E-14, 15.00000000000000000, -2.200000000000015721 ) ) ;
#354 = ORIENTED_EDGE ( 'NONE', *, *, #285, .T. ) ;
#355 = ADVANCED_FACE ( 'NONE', ( #326 ), #120, .T. ) ;
#356 = FACE_OUTER_BOUND ( 'NONE', #252, .T. ) ;
#357 = ORIENTED_EDGE ( 'NONE', *, *, #225, .F. ) ;
#358 = CIRCLE ( 'NONE', #135, 7.000000000000000000 ) ;
#359 = EDGE_CURVE ( 'NONE', #327, #109, #230, .T. ) ;
#360 = CARTESIAN_POINT ( 'NONE',  ( -8.197579321848934223E-14, 0.000000000000000000, -6.999999999999999112 ) ) ;
#361 = ORIENTED_EDGE ( 'NONE', *, *, #312, .F. ) ;
#362 = ORIENTED_EDGE ( 'NONE', *, *, #107, .F. ) ;
#363 = ORIENTED_EDGE ( 'NONE', *, *, #285, .F. ) ;
#364 = CARTESIAN_POINT ( 'NONE',  ( -6.000000000000000000, 6.000000000000000000, -3.966106403010400072 ) ) ;
#365 = ORIENTED_EDGE ( 'NONE', *, *, #220, .T. ) ;
#366 = DIRECTION ( 'NONE',  ( 0.000000000000000000, 0.000000000000000000, 1.000000000000000000 ) ) ;
#367 = VERTEX_POINT ( 'NONE', #45 ) ;
#368 = EDGE_CURVE ( 'NONE', #194, #323, #83, .T. ) ;
#369 = DIRECTION ( 'NONE',  ( 1.000000000000000000, 0.000000000000000000, -1.224646799147353207E-16 ) ) ;
#370 = VECTOR ( 'NONE', #371, 1000.000000000000000 ) ;
#371 = DIRECTION ( 'NONE',  ( 0.000000000000000000, 1.000000000000000000, 0.000000000000000000 ) ) ;
#372 = EDGE_CURVE ( 'NONE', #245, #335, #303, .T. ) ;
#373 = ADVANCED_FACE ( 'NONE', ( #343 ), #259, .T. ) ;
#374 = PRODUCT ( 'Same_Sky_CUSA-TR65-065-2200-TH68', 'Same_Sky_CUSA-TR65-065-2200-TH68', '', ( #64 ) ) ;
#375 = DIRECTION ( 'NONE',  ( 0.000000000000000000, -1.000000000000000000, 0.000000000000000000 ) ) ;
#376 = UNCERTAINTY_MEASURE_WITH_UNIT (LENGTH_MEASURE( 1.000000000000000082E-05 ), #419, 'distance_accuracy_value', 'NONE');
#377 = DIRECTION ( 'NONE',  ( -0.000000000000000000, 1.000000000000000000, 0.000000000000000000 ) ) ;
#378 = AXIS2_PLACEMENT_3D ( 'NONE', #289, #116, #432 ) ;
#379 = DIRECTION ( 'NONE',  ( 0.000000000000000000, 1.000000000000000000, 0.000000000000000000 ) ) ;
#380 = FACE_OUTER_BOUND ( 'NONE', #102, .T. ) ;
#381 = FACE_OUTER_BOUND ( 'NONE', #399, .T. ) ;
#382 = VERTEX_POINT ( 'NONE', #411 ) ;
#383 = CARTESIAN_POINT ( 'NONE',  ( -8.283304597789248827E-14, 6.000000000000000000, 8.673617379884030542E-16 ) ) ;
#384 = ORIENTED_EDGE ( 'NONE', *, *, #164, .F. ) ;
#385 = AXIS2_PLACEMENT_3D ( 'NONE', #160, #369, #195 ) ;
#386 = CARTESIAN_POINT ( 'NONE',  ( -2.119615247209159906E-14, 9.000000000000000000, 2.500000000000000000 ) ) ;
#387 = EDGE_CURVE ( 'NONE', #437, #109, #336, .T. ) ;
#388 = EDGE_CURVE ( 'NONE', #274, #184, #358, .T. ) ;
#389 = CYLINDRICAL_SURFACE ( 'NONE', #196, 0.2999999999999842792 ) ;
#390 = EDGE_CURVE ( 'NONE', #323, #194, #413, .T. ) ;
#391 = DIRECTION ( 'NONE',  ( 0.000000000000000000, 1.000000000000000000, 0.000000000000000000 ) ) ;
#392 = VECTOR ( 'NONE', #91, 1000.000000000000000 ) ;
#393 = DIRECTION ( 'NONE',  ( 0.000000000000000000, 1.000000000000000000, 0.000000000000000000 ) ) ;
#394 = LINE ( 'NONE', #364, #18 ) ;
#395 = VERTEX_POINT ( 'NONE', #5 ) ;
#396 = ADVANCED_FACE ( 'NONE', ( #265 ), #159, .T. ) ;
#397 = ORIENTED_EDGE ( 'NONE', *, *, #58, .F. ) ;
#398 = DIRECTION ( 'NONE',  ( 0.000000000000000000, -1.000000000000000000, 0.000000000000000000 ) ) ;
#399 = EDGE_LOOP ( 'NONE', ( #362, #210, #157, #117 ) ) ;
#400 = CARTESIAN_POINT ( 'NONE',  ( -8.283304597789248827E-14, 9.000000000000000000, 8.673617379884030542E-16 ) ) ;
#401 = ORIENTED_EDGE ( 'NONE', *, *, #292, .F. ) ;
#402 = PRESENTATION_LAYER_ASSIGNMENT (  '', '', ( #280 ) ) ;
#403 = CARTESIAN_POINT ( 'NONE',  ( -8.283304597789248827E-14, 9.000000000000000000, 8.673617379884030542E-16 ) ) ;
#404 = ORIENTED_EDGE ( 'NONE', *, *, #387, .T. ) ;
#405 = FILL_AREA_STYLE_COLOUR ( '', #231 ) ;
#406 = CARTESIAN_POINT ( 'NONE',  ( -2.129102016218409963E-14, 9.000000000000000000, -2.500000000000000000 ) ) ;
#407 = AXIS2_PLACEMENT_3D ( 'NONE', #70, #222, #43 ) ;
#408 = AXIS2_PLACEMENT_3D ( 'NONE', #108, #66, #366 ) ;
#409 = EDGE_CURVE ( 'NONE', #194, #37, #262, .T. ) ;
#410 = CARTESIAN_POINT ( 'NONE',  ( -8.283304597789248827E-14, 9.000000000000000000, 7.000000000000000888 ) ) ;
#411 = CARTESIAN_POINT ( 'NONE',  ( 6.000000000000000000, 6.000000000000000000, 3.605551275463940275 ) ) ;
#412 = CARTESIAN_POINT ( 'NONE',  ( -8.283304597789248827E-14, 9.000000000000000000, 8.673617379884030542E-16 ) ) ;
#413 = CIRCLE ( 'NONE', #189, 7.000000000000000000 ) ;
#414 = DIRECTION ( 'NONE',  ( 0.000000000000000000, -1.000000000000000000, 0.000000000000000000 ) ) ;
#415 = ADVANCED_FACE ( 'NONE', ( #443 ), #227, .T. ) ;
#416 = CARTESIAN_POINT ( 'NONE',  ( 6.000000000000000000, 0.000000000000000000, -3.605551275463924732 ) ) ;
#417 = DIRECTION ( 'NONE',  ( 0.000000000000000000, 0.000000000000000000, 1.000000000000000000 ) ) ;
#418 = ORIENTED_EDGE ( 'NONE', *, *, #368, .F. ) ;
#419 =( LENGTH_UNIT ( ) NAMED_UNIT ( * ) SI_UNIT ( .MILLI., .METRE. ) );
#420 = VERTEX_POINT ( 'NONE', #275 ) ;
#421 = PLANE ( 'NONE',  #149 ) ;
#422 = ORIENTED_EDGE ( 'NONE', *, *, #409, .T. ) ;
#423 = AXIS2_PLACEMENT_3D ( 'NONE', #229, #377, #193 ) ;
#424 = AXIS2_PLACEMENT_3D ( 'NONE', #169, #277, #454 ) ;
#425 = LINE ( 'NONE', #105, #329 ) ;
#426 = ORIENTED_EDGE ( 'NONE', *, *, #220, .F. ) ;
#427 = PRODUCT_RELATED_PRODUCT_CATEGORY ( 'part', '', ( #374 ) ) ;
#428 = ORIENTED_EDGE ( 'NONE', *, *, #32, .T. ) ;
#429 = DIRECTION ( 'NONE',  ( 0.000000000000000000, 0.000000000000000000, -1.000000000000000000 ) ) ;
#430 = ORIENTED_EDGE ( 'NONE', *, *, #292, .T. ) ;
#431 = AXIS2_PLACEMENT_3D ( 'NONE', #27, #180, #451 ) ;
#432 = DIRECTION ( 'NONE',  ( 1.000000000000000000, 0.000000000000000000, 0.000000000000000000 ) ) ;
#433 = ORIENTED_EDGE ( 'NONE', *, *, #123, .T. ) ;
#434 = DIRECTION ( 'NONE',  ( 0.000000000000000000, 0.000000000000000000, 1.000000000000000000 ) ) ;
#435 = ORIENTED_EDGE ( 'NONE', *, *, #458, .T. ) ;
#436 = CARTESIAN_POINT ( 'NONE',  ( -2.125428075820968035E-14, 9.000000000000000000, -2.799999999999984279 ) ) ;
#437 = VERTEX_POINT ( 'NONE', #173 ) ;
#438 = EDGE_CURVE ( 'NONE', #20, #46, #465, .T. ) ;
#439 = VECTOR ( 'NONE', #391, 1000.000000000000000 ) ;
#440 = DIRECTION ( 'NONE',  ( 0.000000000000000000, 0.000000000000000000, -1.000000000000000000 ) ) ;
#441 = EDGE_LOOP ( 'NONE', ( #150, #297 ) ) ;
#442 = AXIS2_PLACEMENT_3D ( 'NONE', #406, #379, #309 ) ;
#443 = FACE_OUTER_BOUND ( 'NONE', #206, .T. ) ;
#444 = DIRECTION ( 'NONE',  ( -0.000000000000000000, 1.000000000000000000, 0.000000000000000000 ) ) ;
#445 = EDGE_CURVE ( 'NONE', #184, #335, #151, .T. ) ;
#446 =( LENGTH_UNIT ( ) NAMED_UNIT ( * ) SI_UNIT ( .MILLI., .METRE. ) );
#447 = TOROIDAL_SURFACE ( 'NONE', #128, 6.500000000000000000, 0.5000000000000000000 ) ;
#448 = CIRCLE ( 'NONE', #39, 7.000000000000000000 ) ;
#449 = CARTESIAN_POINT ( 'NONE',  ( 6.000000000000000000, 9.000000000000000000, -13.33679121828000014 ) ) ;
#450 = DIRECTION ( 'NONE',  ( 0.000000000000000000, 0.000000000000000000, -1.000000000000000000 ) ) ;
#451 = DIRECTION ( 'NONE',  ( 0.000000000000000000, 0.000000000000000000, 1.000000000000000000 ) ) ;
#452 = ADVANCED_FACE ( 'NONE', ( #316 ), #421, .T. ) ;
#453 = AXIS2_PLACEMENT_3D ( 'NONE', #342, #393, #243 ) ;
#454 = DIRECTION ( 'NONE',  ( 0.000000000000000000, 0.000000000000000000, -1.000000000000000000 ) ) ;
#455 = EDGE_LOOP ( 'NONE', ( #81, #215, #404, #213 ) ) ;
#456 = DIRECTION ( 'NONE',  ( 0.000000000000000000, 0.000000000000000000, 1.000000000000000000 ) ) ;
#457 = EDGE_LOOP ( 'NONE', ( #426, #354, #384, #219 ) ) ;
#458 = EDGE_CURVE ( 'NONE', #335, #395, #236, .T. ) ;
#459 = CARTESIAN_POINT ( 'NONE',  ( -2.119615247209159906E-14, 18.00000000000000000, 2.500000000000000000 ) ) ;
#460 = FACE_OUTER_BOUND ( 'NONE', #147, .T. ) ;
#461 = VECTOR ( 'NONE', #25, 1000.000000000000000 ) ;
#462 = CARTESIAN_POINT ( 'NONE',  ( -6.000000000000000000, 9.000000000000000000, -3.821884351991799988 ) ) ;
#463 = FACE_OUTER_BOUND ( 'NONE', #352, .T. ) ;
#464 = VERTEX_POINT ( 'NONE', #207 ) ;
#465 = CIRCLE ( 'NONE', #4, 0.2999999999999842792 ) ;
#466 = ORIENTED_EDGE ( 'NONE', *, *, #372, .T. ) ;
#467 = AXIS2_PLACEMENT_3D ( 'NONE', #286, #398, #34 ) ;
#468 = CARTESIAN_POINT ( 'NONE',  ( -8.197579321848935486E-14, 0.5000000000000000000, -7.000000000000000888 ) ) ;
#469 = ORIENTED_EDGE ( 'NONE', *, *, #388, .F. ) ;
#470 = ADVANCED_FACE ( 'NONE', ( #380 ), #447, .T. ) ;
#471 = ADVANCED_FACE ( 'NONE', ( #460 ), #249, .T. ) ;
#472 = DIRECTION ( 'NONE',  ( 0.000000000000000000, 1.000000000000000000, 0.000000000000000000 ) ) ;
#473 = ORIENTED_EDGE ( 'NONE', *, *, #107, .T. ) ;
ENDSEC;
END-ISO-10303-21;
